@startuml
'scale 1000 width



[*] --> PENDING_PAYMENT
PENDING_PAYMENT : Customer has committed to the proposal
PENDING_PAYMENT : but has not paid yet

state Reservation {

PENDING_PAYMENT --> PENDING_RESERVATION : Customer selected the proposal


PENDING_RESERVATION : Customer has paid but
PENDING_RESERVATION : reservations proces is not started


PENDING_RESERVATION -> RESERVATION_IN_PROGRESS
RESERVATION_IN_PROGRESS : Customer has paid and reservations are in progress

RESERVATION_IN_PROGRESS -> CONFIRMED
CONFIRMED : All providers have confirmed the reservations
CONFIRMED --> [*]   : Customer enjoys the vacation

}

state Cancellation {
'Customer may cancel the reservation under some conditions
CONFIRMED -> Cancellation
CANCELLATION_IN_PROGRESS : Customer requested cancellation

CANCELLED --> [*]
}


PENDING_PAYMENT -> Cancellation

CANCELLATION_IN_PROGRESS -> CANCELLED
CANCELLED : Booking was cancelled

title  State Transition for the Booking \n \n
@enduml